<svg xmlns="http://www.w3.org/2000/svg" xmlns:xlink="http://www.w3.org/1999/xlink" width="22" height="22" viewBox="0 0 18 18"><defs><path id="9howa" d="M454.48 281.04v4.51l3.5 2.206-.72 1.284-4.28-2.695v-5.305zm8.5 2.12h-6.78l2.74-2.82c-2.73-2.7-7.15-2.8-9.88-.1a6.875 6.875 0 0 0 0 9.79 7.02 7.02 0 0 0 9.88 0c1.36-1.34 2.04-2.91 2.04-4.89h2c0 1.98-.88 4.55-2.64 6.29-3.51 3.48-9.21 3.48-12.721 0-3.5-3.47-3.53-9.11-.02-12.58a8.988 8.988 0 0 1 12.65 0l2.731-2.81v7.12z"/></defs><g><g clip-path="url(#clip-32A10CCB-70B6-4FAA-8EEA-7A0CA80D9B5C)" transform="translate(-445 -276)"><use fill="#f9cc67" xlink:href="#9howa"/></g></g></svg>